<svg height="480pt" viewBox="0 0 480.904 480" width="480pt" xmlns="http://www.w3.org/2000/svg"><path d="m192 24.484375c-13.253906 0-24 10.746094-24 24s10.746094 24 24 24 24-10.746094 24-24-10.746094-24-24-24zm0 32c-4.417969 0-8-3.582031-8-8s3.582031-8 8-8 8 3.582031 8 8-3.582031 8-8 8zm0 0"/><path d="m256 352.484375c0 13.253906-10.746094 24-24 24s-24-10.746094-24-24v-16h-16v16c0 22.09375 17.910156 40 40 40s40-17.90625 40-40v-16h-16zm0 0"/><path d="m455.199219 240.484375h-23.199219v-16c0-35.34375-28.652344-64-64-64s-64 28.65625-64 64v16h-23.199219l-6.878906 64h-112.800781l-19.199219 128h-93.921875v-336h56c0 8.835937 7.164062 16 16 16h144c8.835938 0 16-7.164063 16-16h56v56h16v-72h-72v-16h80c4.417969 0 8 3.582031 8 8v80h16v-80c0-13.253906-10.746094-24-24-24h-80c0-8.835937-7.164062-16-16-16h-27.441406c-3.222656-.179687-5.984375-2.375-6.886719-5.480469-5.683594-15.921875-20.765625-26.550781-37.671875-26.550781s-31.988281 10.628906-37.671875 26.550781c-.902344 3.105469-3.664063 5.300782-6.886719 5.480469h-27.441406c-8.835938 0-16 7.164063-16 16h-80c-13.253906 0-24 10.746094-24 24v384c0 13.253906 10.746094 24 24 24h456.902344zm-335.199219-192h27.441406c10.003906-.113281 18.828125-6.582031 21.949219-16.085937 3.40625-9.5625 12.460937-15.945313 22.609375-15.945313s19.203125 6.382813 22.609375 15.945313c3.121094 9.503906 11.945313 15.972656 21.949219 16.085937h27.441406v48h-144zm200 176c0-26.507813 21.492188-48 48-48s48 21.492187 48 48v16h-32v-48h-16v48h-16v-40h-16v40h-16zm-296 240c-4.417969 0-8-3.582031-8-8v-384c0-4.417969 3.582031-8 8-8h80v16h-72v368h107.511719l-2.398438 16zm240 0h-110.710938l21.597657-144h114.226562l21.597657 144zm62.886719 0-24-160h-12.863281l5.160156-48h8.816406v24h16v-24h96v24h16v-24h8.800781l22.277344 208zm0 0"/><path d="m158.34375 126.828125-17.65625 17.65625h-76.6875v80h80v-60.6875l25.65625-25.65625zm-30.34375 81.65625h-48v-48h44.6875l-20.6875 20.6875-10.34375-10.34375-11.3125 11.3125 21.65625 21.65625 24-24zm0 0"/><path d="m144 259.796875 25.65625-25.65625-11.3125-11.3125-17.65625 17.65625h-76.6875v80h80zm-64 44.6875v-48h44.6875l-20.6875 20.6875-10.34375-10.34375-11.3125 11.3125 21.65625 21.65625 24-24v28.6875zm0 0"/><path d="m64 416.484375h80v-80h-80zm16-64h48v48h-48zm0 0"/><path d="m176 160.484375h80v16h-80zm0 0"/><path d="m176 192.484375h80v16h-80zm0 0"/><path d="m176 264.484375h80v16h-80zm0 0"/></svg>