<svg xmlns="http://www.w3.org/2000/svg" width="50" height="37" viewBox="0 0 50 37">
    <g fill="none" fill-rule="evenodd">
        <path fill="#5BC4F1" d="M12.206 4.485c-2.392 0-5.09 2.803-7.532 7.04C2.137 15.925 0 21.96 0 28.533 0 33.723 2.56 37 6.952 37c5.78 0 15.18-3.302 19.184-11.268.392-.779-2.863-4.355-3.743-5.68-4.358-8.708-6.33-15.567-10.187-15.567z"/>
        <path fill="#FFF" d="M6.953 37c6.342 0 11.14-8.01 15.44-16.948 2.068-4.334 3.997-8.875 5.929-12.723C30.44 3.06 32.615 0 35.273 0c2.256 0 4.379 1.852 6.489 4.68 4.378 5.87 8.162 15.81 8.162 22.333 0 5.462-2.837 9.987-8.652 9.987H6.953z"/>
    </g>
</svg>
